<?xml version="1.0" encoding="UTF-8"?>
<svg width="101px" height="102px" viewBox="0 0 101 102" version="1.1" xmlns="http://www.w3.org/2000/svg" xmlns:xlink="http://www.w3.org/1999/xlink">
    <!-- Generator: Sketch 49.3 (51167) - http://www.bohemiancoding.com/sketch -->
    <title>client-management</title>
    <desc>Created with Sketch.</desc>
    <defs></defs>
    <g id="Page-1" stroke="none" stroke-width="1" fill="none" fill-rule="evenodd">
        <g id="agency-landing" transform="translate(-911.000000, -3631.000000)">
            <g id="support" transform="translate(390.000000, 3427.000000)">
                <g id="2" transform="translate(401.000000, 153.000000)">
                    <g id="client-management" transform="translate(121.000000, 51.000000)">
                        <g id="Page-1">
                            <path d="M56.6183,79.4651 C73.3893,86.9301 72.0513,91.1231 72.0513,91.1231 L72.0513,99.7641 L48.8063,99.7641 L49.8573,99.7641 L26.6053,99.7641 L26.6053,91.1231 C26.6053,91.1231 25.2913,86.9831 41.7303,79.6081" id="Stroke-1" stroke="#F7931D" stroke-width="3" stroke-linecap="round" stroke-linejoin="round"></path>
                            <path d="M59.5041,72.2952 C59.5041,78.0382 54.8511,82.6912 49.1111,82.6912 C43.3751,82.6912 38.7231,78.0382 38.7231,72.2952 L38.7231,62.4252 C38.7231,56.6852 43.3751,52.0352 49.1111,52.0352 C54.8511,52.0352 59.5041,56.6852 59.5041,62.4252 L59.5041,72.2952 Z" id="Stroke-3" stroke="#F7931D" stroke-width="3" stroke-linecap="round" stroke-linejoin="round"></path>
                            <path d="M20.5973,64.6282 C31.8123,69.6212 30.9173,72.4262 30.9173,72.4262 L30.9173,78.2062 L15.3673,78.2062 L16.0713,78.2062 L0.5163,78.2062 L0.5163,72.4262 C0.5163,72.4262 -0.3617,69.6562 10.6353,64.7222" id="Stroke-5" stroke="#F7931D" stroke-width="3" stroke-linecap="round" stroke-linejoin="round"></path>
                            <path d="M22.5246,59.8314 C22.5246,63.6724 19.4116,66.7844 15.5716,66.7844 C11.7356,66.7844 8.6226,63.6724 8.6226,59.8314 L8.6226,53.2274 C8.6226,49.3904 11.7356,46.2774 15.5716,46.2774 C19.4116,46.2774 22.5246,49.3904 22.5246,53.2274 L22.5246,59.8314 Z" id="Stroke-7" stroke="#F7931D" stroke-width="3" stroke-linecap="round" stroke-linejoin="round"></path>
                            <path d="M87.82,64.6282 C99.035,69.6212 98.14,72.4262 98.14,72.4262 L98.14,78.2062 L82.59,78.2062 L83.294,78.2062 L67.739,78.2062 L67.739,72.4262 C67.739,72.4262 66.861,69.6562 77.858,64.7222" id="Stroke-9" stroke="#F7931D" stroke-width="3" stroke-linecap="round" stroke-linejoin="round"></path>
                            <path d="M89.7472,59.8314 C89.7472,63.6724 86.6342,66.7844 82.7942,66.7844 C78.9582,66.7844 75.8452,63.6724 75.8452,59.8314 L75.8452,53.2274 C75.8452,49.3904 78.9582,46.2774 82.7942,46.2774 C86.6342,46.2774 89.7472,49.3904 89.7472,53.2274 L89.7472,59.8314 Z" id="Stroke-11" stroke="#F7931D" stroke-width="3" stroke-linecap="round" stroke-linejoin="round"></path>
                            <path d="M44.8791,41.0892 L24.2691,41.0892 C14.8681,41.0892 15.3051,46.2772 15.3051,46.2772" id="Stroke-13" stroke="#F7931D" stroke-width="3" stroke-linecap="round"></path>
                            <path d="M53.0773,41.0892 L73.6873,41.0892 C83.0883,41.0892 82.6513,46.2772 82.6513,46.2772" id="Stroke-15" stroke="#F7931D" stroke-width="3" stroke-linecap="round"></path>
                            <path d="M48.9259,52.0355 L48.9259,46.0735" id="Stroke-17" stroke="#F7931D" stroke-width="3" stroke-linecap="round"></path>
                            <polygon id="Fill-19" fill="#F7931D" points="47.206 95.778 50.327 95.778 50.327 92.656 47.206 92.656"></polygon>
                            <polygon id="Fill-21" fill="#F7931D" points="47.206 89.944 50.327 89.944 50.327 86.823 47.206 86.823"></polygon>
                            <path d="M31.207,34.528 L66.326,34.528 L66.326,1.79 L31.207,1.79 L31.207,34.528 Z M29.417,36.318 L68.117,36.318 L68.117,0 L29.417,0 L29.417,36.318 Z" id="Fill-22" fill="#F7931D"></path>
                            <polygon id="Fill-23" fill="#F7931D" points="30.012 6.553 67.522 6.553 67.522 4.763 30.012 4.763"></polygon>
                            <polygon id="Fill-24" fill="#F7931D" points="31.798 4.171 33.588 4.171 33.588 2.381 31.798 2.381"></polygon>
                            <polygon id="Fill-25" fill="#F7931D" points="34.179 4.171 35.969 4.171 35.969 2.381 34.179 2.381"></polygon>
                            <polygon id="Fill-26" fill="#F7931D" points="36.561 4.171 38.351 4.171 38.351 2.381 36.561 2.381"></polygon>
                            <polygon id="Fill-27" fill="#F7931D" points="38.942 5.957 40.732 5.957 40.732 0.595 38.942 0.595"></polygon>
                            <polygon id="Fill-28" fill="#F7931D" points="41.323 4.171 65.736 4.171 65.736 2.381 41.323 2.381"></polygon>
                            <path d="M34.779,17.86 L62.755,17.86 L62.755,12.506 L34.779,12.506 L34.779,17.86 Z M32.988,19.65 L64.545,19.65 L64.545,10.716 L32.988,10.716 L32.988,19.65 Z" id="Fill-29" fill="#F7931D"></path>
                            <polygon id="Fill-30" fill="#F7931D" points="32.988 10.124 40.732 10.124 40.732 8.334 32.988 8.334"></polygon>
                            <polygon id="Fill-31" fill="#F7931D" points="50.848 10.124 53.829 10.124 53.829 8.334 50.848 8.334"></polygon>
                            <polygon id="Fill-32" fill="#F7931D" points="54.42 10.124 57.401 10.124 57.401 8.334 54.42 8.334"></polygon>
                            <polygon id="Fill-33" fill="#F7931D" points="57.992 10.124 60.973 10.124 60.973 8.334 57.992 8.334"></polygon>
                            <polygon id="Fill-34" fill="#F7931D" points="61.564 10.124 64.545 10.124 64.545 8.334 61.564 8.334"></polygon>
                            <polygon id="Fill-35" fill="#F7931D" points="47.872 16.077 49.662 16.077 49.662 14.287 47.872 14.287"></polygon>
                            <polygon id="Fill-36" fill="#F7931D" points="45.49 16.077 47.28 16.077 47.28 14.287 45.49 14.287"></polygon>
                            <polygon id="Fill-37" fill="#F7931D" points="50.253 16.077 52.043 16.077 52.043 14.287 50.253 14.287"></polygon>
                            <polygon id="Fill-38" fill="#F7931D" points="54.42 22.031 64.545 22.031 64.545 20.241 54.42 20.241"></polygon>
                            <polygon id="Fill-39" fill="#F7931D" points="43.704 22.031 53.829 22.031 53.829 20.241 43.704 20.241"></polygon>
                            <polygon id="Fill-40" fill="#F7931D" points="32.988 22.031 43.113 22.031 43.113 20.241 32.988 20.241"></polygon>
                            <path d="M34.779,30.956 L41.323,30.956 L41.323,24.412 L34.779,24.412 L34.779,30.956 Z M32.988,32.746 L43.113,32.746 L43.113,22.622 L32.988,22.622 L32.988,32.746 Z" id="Fill-41" fill="#F7931D"></path>
                            <path d="M45.495,30.956 L52.039,30.956 L52.039,24.412 L45.495,24.412 L45.495,30.956 Z M43.704,32.746 L53.829,32.746 L53.829,22.622 L43.704,22.622 L43.704,32.746 Z" id="Fill-42" fill="#F7931D"></path>
                            <path d="M56.211,30.956 L62.755,30.956 L62.755,24.412 L56.211,24.412 L56.211,30.956 Z M54.42,32.746 L64.545,32.746 L64.545,22.622 L54.42,22.622 L54.42,32.746 Z" id="Fill-43" fill="#F7931D"></path>
                        </g>
                    </g>
                </g>
            </g>
        </g>
    </g>
</svg>