<?xml version="1.0" encoding="UTF-8"?>
<svg width="110px" height="84px" viewBox="0 0 110 84" version="1.1" xmlns="http://www.w3.org/2000/svg" xmlns:xlink="http://www.w3.org/1999/xlink">
    <!-- Generator: Sketch 49.3 (51167) - http://www.bohemiancoding.com/sketch -->
    <title>custom-branding</title>
    <desc>Created with Sketch.</desc>
    <defs></defs>
    <g id="Page-1" stroke="none" stroke-width="1" fill="none" fill-rule="evenodd">
        <g id="agency-landing" transform="translate(-505.000000, -3640.000000)" fill="#F7931D">
            <g id="support" transform="translate(390.000000, 3427.000000)">
                <g id="1" transform="translate(0.000000, 153.000000)">
                    <g id="custom-branding" transform="translate(115.000000, 60.000000)">
                        <g id="Page-1">
                            <path d="M100.211864,45.8181818 C102.948347,45.8181818 105.426144,46.9736591 107.20339,48.8321591 L107.20339,12.8863636 C107.20339,8.93884091 104.066992,5.72727273 100.211864,5.72727273 C96.3567373,5.72727273 93.220339,8.93884091 93.220339,12.8863636 L93.220339,48.8321591 C94.9975847,46.9736591 97.4753814,45.8181818 100.211864,45.8181818 M100.211864,65.8636364 L20.5084746,65.8636364 L20.5084746,11.4545455 L87.6271186,11.4545455 L87.6271186,14.3181818 L23.3050847,14.3181818 L23.3050847,63 L100.211864,63 C104.066992,63 107.20339,59.7884318 107.20339,55.8409091 C107.20339,51.8933864 104.066992,48.6818182 100.211864,48.6818182 C96.3567373,48.6818182 93.220339,51.8933864 93.220339,55.8409091 L90.4237288,55.8409091 L90.4237288,12.8863636 C90.4237288,7.36097727 94.8144068,2.86363636 100.211864,2.86363636 C105.609322,2.86363636 110,7.36097727 110,12.8863636 L110,55.8409091 C110,61.3662955 105.609322,65.8636364 100.211864,65.8636364" id="Fill-1"></path>
                            <polygon id="Fill-3" points="31.6949153 58.2272727 34.4915254 58.2272727 34.4915254 18.1363636 31.6949153 18.1363636"></polygon>
                            <polygon id="Fill-5" points="27.9661017 25.7727273 87.6271186 25.7727273 87.6271186 22.9090909 27.9661017 22.9090909"></polygon>
                            <path d="M23.3050847,80.1818182 L107.20339,80.1818182 L107.20339,71.5909091 L23.3050847,71.5909091 L23.3050847,80.1818182 Z M20.5084746,83.0454545 L110,83.0454545 L110,68.7272727 L20.5084746,68.7272727 L20.5084746,83.0454545 Z" id="Fill-6"></path>
                            <polygon id="Fill-7" points="26.1016949 81.1363636 28.8983051 81.1363636 28.8983051 77.3181818 26.1016949 77.3181818"></polygon>
                            <polygon id="Fill-8" points="31.6949153 81.1363636 34.4915254 81.1363636 34.4915254 77.3181818 31.6949153 77.3181818"></polygon>
                            <polygon id="Fill-9" points="37.2881356 81.1363636 40.0847458 81.1363636 40.0847458 77.3181818 37.2881356 77.3181818"></polygon>
                            <polygon id="Fill-10" points="42.8813559 81.1363636 45.6779661 81.1363636 45.6779661 77.3181818 42.8813559 77.3181818"></polygon>
                            <polygon id="Fill-11" points="48.4745763 81.1363636 51.2711864 81.1363636 51.2711864 77.3181818 48.4745763 77.3181818"></polygon>
                            <polygon id="Fill-12" points="54.0677966 81.1363636 56.8644068 81.1363636 56.8644068 77.3181818 54.0677966 77.3181818"></polygon>
                            <polygon id="Fill-13" points="59.6610169 81.1363636 62.4576271 81.1363636 62.4576271 77.3181818 59.6610169 77.3181818"></polygon>
                            <polygon id="Fill-14" points="65.2542373 81.1363636 68.0508475 81.1363636 68.0508475 77.3181818 65.2542373 77.3181818"></polygon>
                            <polygon id="Fill-15" points="70.8474576 81.1363636 73.6440678 81.1363636 73.6440678 77.3181818 70.8474576 77.3181818"></polygon>
                            <polygon id="Fill-16" points="76.440678 81.1363636 79.2372881 81.1363636 79.2372881 77.3181818 76.440678 77.3181818"></polygon>
                            <polygon id="Fill-17" points="82.0338983 81.1363636 84.8305085 81.1363636 84.8305085 77.3181818 82.0338983 77.3181818"></polygon>
                            <polygon id="Fill-18" points="87.6271186 81.1363636 90.4237288 81.1363636 90.4237288 77.3181818 87.6271186 77.3181818"></polygon>
                            <polygon id="Fill-19" points="93.220339 81.1363636 96.0169492 81.1363636 96.0169492 77.3181818 93.220339 77.3181818"></polygon>
                            <polygon id="Fill-20" points="101.610169 77.3181818 104.40678 77.3181818 104.40678 74.4545455 101.610169 74.4545455"></polygon>
                            <polygon id="Fill-21" points="6.52542373 73.5 13.9830508 73.5 13.9830508 70.6363636 6.52542373 70.6363636"></polygon>
                            <polygon id="Fill-22" points="6.52542373 52.5 13.9830508 52.5 13.9830508 49.6363636 6.52542373 49.6363636"></polygon>
                            <polygon id="Fill-23" points="6.52542373 9.54545455 13.9830508 9.54545455 13.9830508 6.68181818 6.52542373 6.68181818"></polygon>
                            <path d="M7.22422668,75.7599332 L9.78743641,80.1369765 L12.3520445,75.7599332 L12.3520445,5.25044744 C12.3520445,3.80288748 11.2011871,2.62450782 9.78743641,2.62450782 C8.37368571,2.62450782 7.22422668,3.80288748 7.22422668,5.25044744 L7.22422668,75.7599332 Z M9.78743641,84 C9.33856007,84 8.92044785,83.7565923 8.68831865,83.3628445 L4.84280487,76.8008591 C4.72394354,76.5961102 4.66101695,76.3627252 4.66101695,76.1250447 L4.66101695,5.25044744 C4.66101695,2.35389572 6.96133337,0 9.78743641,0 C12.6149378,0 14.9152542,2.35389572 14.9152542,5.25044744 L14.9152542,76.1250447 C14.9152542,76.3627252 14.8523276,76.5961102 14.7320679,76.8008591 L10.8865542,83.3628445 C10.6558233,83.7565923 10.2377111,84 9.78743641,84 Z" id="Fill-24"></path>
                            <path d="M2.54199466,37.2272727 L0,37.2272727 L0,12.7436739 C0,12.0309278 0.568585822,11.4545455 1.27030393,11.4545455 L13.9830508,11.4545455 L13.9830508,14.0313964 L2.54199466,14.0313964 L2.54199466,37.2272727 Z" id="Fill-25"></path>
                        </g>
                    </g>
                </g>
            </g>
        </g>
    </g>
</svg>