<?xml version="1.0" encoding="UTF-8"?>
<svg width="87px" height="86px" viewBox="0 0 87 86" version="1.1" xmlns="http://www.w3.org/2000/svg" xmlns:xlink="http://www.w3.org/1999/xlink">
    <!-- Generator: Sketch 49.3 (51167) - http://www.bohemiancoding.com/sketch -->
    <title>Dedicated-am</title>
    <desc>Created with Sketch.</desc>
    <defs></defs>
    <g id="Page-1" stroke="none" stroke-width="1" fill="none" fill-rule="evenodd">
        <g id="agency-landing" transform="translate(-1318.000000, -3638.000000)" fill="#F7931D">
            <g id="support" transform="translate(390.000000, 3427.000000)">
                <g id="3" transform="translate(801.000000, 153.000000)">
                    <g id="Dedicated-am" transform="translate(127.000000, 58.000000)">
                        <g id="Page-1">
                            <path d="M20.2133152,49.1428571 C19.8629511,49.1428571 19.5179772,49.003619 19.2605943,48.7428889 L8.87499293,38.2222222 L1.34755435,38.2222222 C0.602356793,38.2222222 0,37.6106667 0,36.8571429 L0,1.36507937 C0,0.611555556 0.602356793,0 1.34755435,0 L52.5546196,0 C53.2998171,0 53.9021739,0.611555556 53.9021739,1.36507937 L53.9021739,36.8571429 C53.9021739,37.6106667 53.2998171,38.2222222 52.5546196,38.2222222 L48.5119565,38.2222222 L48.5119565,35.4920635 L51.2070652,35.4920635 L51.2070652,2.73015873 L2.6951087,2.73015873 L2.6951087,35.4920635 L9.43288043,35.4920635 C9.79132989,35.4920635 10.1336087,35.6353968 10.3856014,35.8920317 L18.8657609,44.4824762 L18.8657609,36.8571429 C18.8657609,36.103619 19.4681177,35.4920635 20.2133152,35.4920635 L30.99375,35.4920635 L30.99375,38.2222222 L21.5608696,38.2222222 L21.5608696,47.7777778 C21.5608696,48.3292698 21.2334139,48.8275238 20.7294285,49.0391111 C20.5623318,49.1087302 20.3871497,49.1428571 20.2133152,49.1428571" id="Fill-1"></path>
                            <path d="M2.67007673,83.3102282 L20.0255754,83.3102282 L20.0255754,53.7227388 L2.67007673,53.7227388 L2.67007673,83.3102282 Z M21.3606138,86 L1.33503836,86 C0.596762148,86 0,85.3974911 0,84.6551141 L0,52.3778529 C0,51.6354759 0.596762148,51.032967 1.33503836,51.032967 L21.3606138,51.032967 C22.09889,51.032967 22.6956522,51.6354759 22.6956522,52.3778529 L22.6956522,84.6551141 C22.6956522,85.3974911 22.09889,86 21.3606138,86 Z" id="Fill-3"></path>
                            <path d="M53.9631837,86 L31.1455119,86 C30.9374684,86 30.7307672,85.9522072 30.5455414,85.8606044 L25.1766774,83.20545 L26.3766185,80.8290869 L31.4622749,83.3448456 L53.9631837,83.3448456 C55.443648,83.3448456 56.6476157,82.1540089 56.6476157,80.6896913 C56.6476157,79.2253736 55.443648,78.0345369 53.9631837,78.0345369 C53.2209383,78.0345369 52.6209677,77.4397823 52.6209677,76.7069597 C52.6209677,75.9741371 53.2209383,75.3793825 53.9631837,75.3793825 L55.3053997,75.3793825 C56.785864,75.3793825 57.9898317,74.1885458 57.9898317,72.7242282 C57.9898317,71.2599105 56.785864,70.0690738 55.3053997,70.0690738 C54.5631543,70.0690738 53.9631837,69.4743192 53.9631837,68.7414966 C53.9631837,68.008674 54.5631543,67.4139194 55.3053997,67.4139194 L57.9898317,67.4139194 C59.4702959,67.4139194 60.6742637,66.2230827 60.6742637,64.758765 C60.6742637,63.2944474 59.4702959,62.1036107 57.9898317,62.1036107 L56.6476157,62.1036107 C55.9053703,62.1036107 55.3053997,61.5088561 55.3053997,60.7760335 C55.3053997,60.0432109 55.9053703,59.4484563 56.6476157,59.4484563 C58.1280799,59.4484563 59.3320477,58.2576196 59.3320477,56.7933019 C59.3320477,55.3289843 58.1280799,54.1381476 56.6476157,54.1381476 L39.1988079,54.1381476 C38.7612454,54.1381476 38.3505273,53.9270628 38.099533,53.5725997 C37.8485386,53.2181366 37.7867966,52.7641052 37.938467,52.356539 L43.2254558,37.9735678 L43.2254558,35.552067 C43.2254558,34.0877493 42.0214881,32.8969126 40.5410238,32.8969126 C39.0605596,32.8969126 37.8565919,34.0877493 37.8565919,35.552067 C37.8565919,35.7578414 37.8082721,35.9622883 37.7156592,36.145494 L33.6890112,44.1109571 C33.638007,44.2091978 33.5776073,44.2994731 33.5064698,44.3817828 L25.4531739,53.6748231 C25.1981529,53.9695453 24.826359,54.1381476 24.434432,54.1381476 L21.75,54.1381476 L21.75,51.4829932 L23.8170126,51.4829932 L31.3602665,42.7780696 L35.1828976,35.2175175 C35.3573857,32.4455364 37.6941837,30.2417582 40.5410238,30.2417582 C43.5019523,30.2417582 45.9098878,32.6234317 45.9098878,35.552067 L45.9098878,38.2072214 C45.9098878,38.3625479 45.8817013,38.5152193 45.8280126,38.6612527 L41.1154923,51.4829932 L56.6476157,51.4829932 C59.6085442,51.4829932 62.0164797,53.8646667 62.0164797,56.7933019 C62.0164797,58.093 61.5413352,59.2851643 60.7561388,60.209158 C62.3144516,61.1384621 63.3586957,62.8297954 63.3586957,64.758765 C63.3586957,67.0714045 61.8554137,69.0441842 59.7655835,69.7703689 C60.3387097,70.6160356 60.6742637,71.6316321 60.6742637,72.7242282 C60.6742637,74.6531978 59.6300196,76.3445311 58.0717069,77.2738352 C58.8569032,78.1978289 59.3320477,79.3899932 59.3320477,80.6896913 C59.3320477,83.6183265 56.9241122,86 53.9631837,86" id="Fill-5"></path>
                            <polygon id="Fill-6" points="15.1304348 80.3296703 17.9673913 80.3296703 17.9673913 77.4945055 15.1304348 77.4945055"></polygon>
                            <path d="M66.7360248,55.7582418 C66.5617547,55.7582418 66.3861335,55.7248869 66.218618,55.6568429 C65.7133696,55.4500427 65.3850932,54.9630614 65.3850932,54.4240465 L65.3850932,45.08468 L49.173913,45.08468 L49.173913,42.4162896 L66.7360248,42.4162896 C67.4830901,42.4162896 68.0869565,43.014009 68.0869565,43.7504848 L68.0869565,51.2032993 L76.5883696,42.8072088 C76.8409938,42.5563801 77.1841304,42.4162896 77.5434783,42.4162896 L84.2981366,42.4162896 L84.2981366,13.0639948 L57.2795031,13.0639948 L57.2795031,10.3956044 L85.6490683,10.3956044 C86.3961335,10.3956044 87,10.9933239 87,11.7297996 L87,43.7504848 C87,44.4869606 86.3961335,45.08468 85.6490683,45.08468 L78.102764,45.08468 L67.6911335,55.3673226 C67.4331056,55.6221538 67.0872671,55.7582418 66.7360248,55.7582418" id="Fill-7"></path>
                            <polygon id="Fill-8" points="19.8586957 19.8461538 22.6956522 19.8461538 22.6956522 17.010989 19.8586957 17.010989"></polygon>
                            <polygon id="Fill-9" points="25.5326087 19.8461538 28.3695652 19.8461538 28.3695652 17.010989 25.5326087 17.010989"></polygon>
                            <polygon id="Fill-10" points="30.2608696 19.8461538 33.0978261 19.8461538 33.0978261 17.010989 30.2608696 17.010989"></polygon>
                            <polygon id="Fill-11" points="56.7391304 21.7362637 78.4891304 21.7362637 78.4891304 18.9010989 56.7391304 18.9010989"></polygon>
                            <polygon id="Fill-12" points="56.7391304 29.2967033 78.4891304 29.2967033 78.4891304 26.4615385 56.7391304 26.4615385"></polygon>
                            <polygon id="Fill-13" points="56.7391304 37.8021978 78.4891304 37.8021978 78.4891304 34.967033 56.7391304 34.967033"></polygon>
                            <path d="M11.2127329,24.5714286 L43.6350932,24.5714286 L43.6350932,13.2307692 L11.2127329,13.2307692 L11.2127329,24.5714286 Z M44.9860248,27.4065934 L9.86180124,27.4065934 C9.11473602,27.4065934 8.51086957,26.7715165 8.51086957,25.989011 L8.51086957,11.8131868 C8.51086957,11.0306813 9.11473602,10.3956044 9.86180124,10.3956044 L44.9860248,10.3956044 C45.7330901,10.3956044 46.3369565,11.0306813 46.3369565,11.8131868 L46.3369565,25.989011 C46.3369565,26.7715165 45.7330901,27.4065934 44.9860248,27.4065934 Z" id="Fill-14"></path>
                        </g>
                    </g>
                </g>
            </g>
        </g>
    </g>
</svg>